<mxfile host="app.diagrams.net" modified="2024-03-03T15:35:54.296Z" agent="Mozilla/5.0 (Windows NT 10.0; Win64; x64) AppleWebKit/537.36 (KHTML, like Gecko) Chrome/120.0.0.0 YaBrowser/24.1.0.0 Safari/537.36" etag="-JFu7cVl9h57GSMeo6M2" version="23.1.8" type="device">
  <diagram name="Страница — 1" id="OQYlK4gq3XDp_OIohNWo">
    <mxGraphModel dx="1935" dy="883" grid="0" gridSize="6" guides="1" tooltips="1" connect="1" arrows="1" fold="1" page="1" pageScale="1" pageWidth="827" pageHeight="1169" math="0" shadow="0">
      <root>
        <mxCell id="0" />
        <mxCell id="1" parent="0" />
        <mxCell id="WhZeEfPbCVpSr8RxyIic-16" value="Stack" style="swimlane;fontStyle=1;align=center;verticalAlign=top;childLayout=stackLayout;horizontal=1;startSize=26;horizontalStack=0;resizeParent=1;resizeParentMax=0;resizeLast=0;collapsible=1;marginBottom=0;whiteSpace=wrap;html=1;" parent="1" vertex="1">
          <mxGeometry x="401.5" y="91" width="205" height="320" as="geometry">
            <mxRectangle x="101" y="384" width="52" height="26" as="alternateBounds" />
          </mxGeometry>
        </mxCell>
        <mxCell id="WhZeEfPbCVpSr8RxyIic-20" value="- top: int" style="text;strokeColor=none;fillColor=none;align=left;verticalAlign=top;spacingLeft=4;spacingRight=4;overflow=hidden;rotatable=0;points=[[0,0.5],[1,0.5]];portConstraint=eastwest;whiteSpace=wrap;html=1;" parent="WhZeEfPbCVpSr8RxyIic-16" vertex="1">
          <mxGeometry y="26" width="205" height="26" as="geometry" />
        </mxCell>
        <mxCell id="WhZeEfPbCVpSr8RxyIic-17" value="- length: int" style="text;strokeColor=none;fillColor=none;align=left;verticalAlign=top;spacingLeft=4;spacingRight=4;overflow=hidden;rotatable=0;points=[[0,0.5],[1,0.5]];portConstraint=eastwest;whiteSpace=wrap;html=1;" parent="WhZeEfPbCVpSr8RxyIic-16" vertex="1">
          <mxGeometry y="52" width="205" height="26" as="geometry" />
        </mxCell>
        <mxCell id="Z76vCyFURMCPnctb68hr-45" value="- data: char*" style="text;strokeColor=none;fillColor=none;align=left;verticalAlign=top;spacingLeft=4;spacingRight=4;overflow=hidden;rotatable=0;points=[[0,0.5],[1,0.5]];portConstraint=eastwest;whiteSpace=wrap;html=1;" vertex="1" parent="WhZeEfPbCVpSr8RxyIic-16">
          <mxGeometry y="78" width="205" height="26" as="geometry" />
        </mxCell>
        <mxCell id="WhZeEfPbCVpSr8RxyIic-18" value="" style="line;strokeWidth=1;fillColor=none;align=left;verticalAlign=middle;spacingTop=-1;spacingLeft=3;spacingRight=3;rotatable=0;labelPosition=right;points=[];portConstraint=eastwest;strokeColor=inherit;" parent="WhZeEfPbCVpSr8RxyIic-16" vertex="1">
          <mxGeometry y="104" width="205" height="8" as="geometry" />
        </mxCell>
        <mxCell id="WhZeEfPbCVpSr8RxyIic-19" value="+ Stack(int length)" style="text;strokeColor=none;fillColor=none;align=left;verticalAlign=top;spacingLeft=4;spacingRight=4;overflow=hidden;rotatable=0;points=[[0,0.5],[1,0.5]];portConstraint=eastwest;whiteSpace=wrap;html=1;" parent="WhZeEfPbCVpSr8RxyIic-16" vertex="1">
          <mxGeometry y="112" width="205" height="26" as="geometry" />
        </mxCell>
        <mxCell id="WhZeEfPbCVpSr8RxyIic-22" value="+ ~Stack()" style="text;strokeColor=none;fillColor=none;align=left;verticalAlign=top;spacingLeft=4;spacingRight=4;overflow=hidden;rotatable=0;points=[[0,0.5],[1,0.5]];portConstraint=eastwest;whiteSpace=wrap;html=1;" parent="WhZeEfPbCVpSr8RxyIic-16" vertex="1">
          <mxGeometry y="138" width="205" height="26" as="geometry" />
        </mxCell>
        <mxCell id="WhZeEfPbCVpSr8RxyIic-21" value="+ empty(): bool" style="text;strokeColor=none;fillColor=none;align=left;verticalAlign=top;spacingLeft=4;spacingRight=4;overflow=hidden;rotatable=0;points=[[0,0.5],[1,0.5]];portConstraint=eastwest;whiteSpace=wrap;html=1;" parent="WhZeEfPbCVpSr8RxyIic-16" vertex="1">
          <mxGeometry y="164" width="205" height="26" as="geometry" />
        </mxCell>
        <mxCell id="wN-8WOTjSVyK1rVOfwQU-4" value="+ print(std::ostream &amp;amp;ostream): void" style="text;strokeColor=none;fillColor=none;align=left;verticalAlign=top;spacingLeft=4;spacingRight=4;overflow=hidden;rotatable=0;points=[[0,0.5],[1,0.5]];portConstraint=eastwest;whiteSpace=wrap;html=1;" parent="WhZeEfPbCVpSr8RxyIic-16" vertex="1">
          <mxGeometry y="190" width="205" height="26" as="geometry" />
        </mxCell>
        <mxCell id="WhZeEfPbCVpSr8RxyIic-23" value="+ pop(char &amp;amp;out): bool" style="text;strokeColor=none;fillColor=none;align=left;verticalAlign=top;spacingLeft=4;spacingRight=4;overflow=hidden;rotatable=0;points=[[0,0.5],[1,0.5]];portConstraint=eastwest;whiteSpace=wrap;html=1;" parent="WhZeEfPbCVpSr8RxyIic-16" vertex="1">
          <mxGeometry y="216" width="205" height="26" as="geometry" />
        </mxCell>
        <mxCell id="WhZeEfPbCVpSr8RxyIic-24" value="+ pop(): char" style="text;strokeColor=none;fillColor=none;align=left;verticalAlign=top;spacingLeft=4;spacingRight=4;overflow=hidden;rotatable=0;points=[[0,0.5],[1,0.5]];portConstraint=eastwest;whiteSpace=wrap;html=1;" parent="WhZeEfPbCVpSr8RxyIic-16" vertex="1">
          <mxGeometry y="242" width="205" height="26" as="geometry" />
        </mxCell>
        <mxCell id="WhZeEfPbCVpSr8RxyIic-26" value="+ push(char value): bool" style="text;strokeColor=none;fillColor=none;align=left;verticalAlign=top;spacingLeft=4;spacingRight=4;overflow=hidden;rotatable=0;points=[[0,0.5],[1,0.5]];portConstraint=eastwest;whiteSpace=wrap;html=1;" parent="WhZeEfPbCVpSr8RxyIic-16" vertex="1">
          <mxGeometry y="268" width="205" height="26" as="geometry" />
        </mxCell>
        <mxCell id="WhZeEfPbCVpSr8RxyIic-25" value="+ clear(): void" style="text;strokeColor=none;fillColor=none;align=left;verticalAlign=top;spacingLeft=4;spacingRight=4;overflow=hidden;rotatable=0;points=[[0,0.5],[1,0.5]];portConstraint=eastwest;whiteSpace=wrap;html=1;" parent="WhZeEfPbCVpSr8RxyIic-16" vertex="1">
          <mxGeometry y="294" width="205" height="26" as="geometry" />
        </mxCell>
        <mxCell id="WhZeEfPbCVpSr8RxyIic-32" value="" style="edgeStyle=orthogonalEdgeStyle;rounded=0;orthogonalLoop=1;jettySize=auto;html=1;" parent="1" source="WhZeEfPbCVpSr8RxyIic-30" target="WhZeEfPbCVpSr8RxyIic-31" edge="1">
          <mxGeometry relative="1" as="geometry" />
        </mxCell>
        <mxCell id="WhZeEfPbCVpSr8RxyIic-30" value="&lt;font style=&quot;font-size: 10px;&quot;&gt;main&lt;/font&gt;" style="ellipse;whiteSpace=wrap;html=1;" parent="1" vertex="1">
          <mxGeometry x="659" y="110" width="75" height="30" as="geometry" />
        </mxCell>
        <mxCell id="WhZeEfPbCVpSr8RxyIic-34" value="" style="edgeStyle=orthogonalEdgeStyle;rounded=0;orthogonalLoop=1;jettySize=auto;html=1;" parent="1" source="WhZeEfPbCVpSr8RxyIic-31" target="WhZeEfPbCVpSr8RxyIic-33" edge="1">
          <mxGeometry relative="1" as="geometry" />
        </mxCell>
        <mxCell id="WhZeEfPbCVpSr8RxyIic-31" value="&lt;font style=&quot;font-size: 10px;&quot;&gt;std::ostream &amp;amp;ostream = std::cout&lt;/font&gt;" style="whiteSpace=wrap;html=1;" parent="1" vertex="1">
          <mxGeometry x="619.5" y="154" width="154" height="20" as="geometry" />
        </mxCell>
        <mxCell id="WhZeEfPbCVpSr8RxyIic-36" value="" style="edgeStyle=orthogonalEdgeStyle;rounded=0;orthogonalLoop=1;jettySize=auto;html=1;" parent="1" source="WhZeEfPbCVpSr8RxyIic-33" target="WhZeEfPbCVpSr8RxyIic-35" edge="1">
          <mxGeometry relative="1" as="geometry" />
        </mxCell>
        <mxCell id="WhZeEfPbCVpSr8RxyIic-33" value="&lt;font style=&quot;font-size: 10px;&quot;&gt;std::istream &amp;amp;istream = std::cin&lt;/font&gt;" style="whiteSpace=wrap;html=1;" parent="1" vertex="1">
          <mxGeometry x="619.5" y="188" width="154" height="20" as="geometry" />
        </mxCell>
        <mxCell id="WhZeEfPbCVpSr8RxyIic-38" style="edgeStyle=orthogonalEdgeStyle;rounded=0;orthogonalLoop=1;jettySize=auto;html=1;exitX=0.5;exitY=1;exitDx=0;exitDy=0;entryX=0.5;entryY=0;entryDx=0;entryDy=0;" parent="1" source="WhZeEfPbCVpSr8RxyIic-35" target="WhZeEfPbCVpSr8RxyIic-37" edge="1">
          <mxGeometry relative="1" as="geometry" />
        </mxCell>
        <mxCell id="WhZeEfPbCVpSr8RxyIic-35" value="&lt;font style=&quot;font-size: 10px;&quot;&gt;MyHandler *myHandler = &lt;br&gt;new MyHandler(ostream, istream)&lt;/font&gt;" style="whiteSpace=wrap;html=1;" parent="1" vertex="1">
          <mxGeometry x="619.5" y="222" width="154" height="32" as="geometry" />
        </mxCell>
        <mxCell id="msGOGFPddx5jtVh7guZ0-2" style="edgeStyle=orthogonalEdgeStyle;rounded=0;orthogonalLoop=1;jettySize=auto;html=1;entryX=0.5;entryY=0;entryDx=0;entryDy=0;" parent="1" source="WhZeEfPbCVpSr8RxyIic-37" target="WhZeEfPbCVpSr8RxyIic-40" edge="1">
          <mxGeometry relative="1" as="geometry" />
        </mxCell>
        <mxCell id="WhZeEfPbCVpSr8RxyIic-37" value="&lt;font style=&quot;font-size: 10px;&quot;&gt;myHandler-&amp;gt;start()&lt;/font&gt;" style="whiteSpace=wrap;html=1;" parent="1" vertex="1">
          <mxGeometry x="619.5" y="268" width="154" height="20" as="geometry" />
        </mxCell>
        <mxCell id="WhZeEfPbCVpSr8RxyIic-45" style="edgeStyle=orthogonalEdgeStyle;rounded=0;orthogonalLoop=1;jettySize=auto;html=1;entryX=0.5;entryY=0;entryDx=0;entryDy=0;" parent="1" edge="1">
          <mxGeometry relative="1" as="geometry">
            <mxPoint x="350" y="594" as="targetPoint" />
          </mxGeometry>
        </mxCell>
        <mxCell id="WhZeEfPbCVpSr8RxyIic-48" style="edgeStyle=orthogonalEdgeStyle;rounded=0;orthogonalLoop=1;jettySize=auto;html=1;entryX=0.5;entryY=0;entryDx=0;entryDy=0;" parent="1" source="WhZeEfPbCVpSr8RxyIic-40" target="WhZeEfPbCVpSr8RxyIic-47" edge="1">
          <mxGeometry relative="1" as="geometry" />
        </mxCell>
        <mxCell id="WhZeEfPbCVpSr8RxyIic-40" value="&lt;font style=&quot;font-size: 10px;&quot;&gt;return 0&lt;/font&gt;" style="whiteSpace=wrap;html=1;" parent="1" vertex="1">
          <mxGeometry x="619.5" y="302" width="154" height="20" as="geometry" />
        </mxCell>
        <mxCell id="WhZeEfPbCVpSr8RxyIic-47" value="&lt;font style=&quot;font-size: 10px;&quot;&gt;Конец&lt;/font&gt;" style="ellipse;whiteSpace=wrap;html=1;" parent="1" vertex="1">
          <mxGeometry x="659" y="337" width="75" height="30" as="geometry" />
        </mxCell>
        <mxCell id="Z76vCyFURMCPnctb68hr-25" value="" style="group;glass=0;" vertex="1" connectable="0" parent="1">
          <mxGeometry x="83" y="485" width="504" height="67.5" as="geometry" />
        </mxCell>
        <mxCell id="Z76vCyFURMCPnctb68hr-3" value="" style="rounded=0;whiteSpace=wrap;html=1;" vertex="1" parent="Z76vCyFURMCPnctb68hr-25">
          <mxGeometry x="39" y="37" width="45" height="30" as="geometry" />
        </mxCell>
        <mxCell id="Z76vCyFURMCPnctb68hr-4" value="" style="rounded=0;whiteSpace=wrap;html=1;" vertex="1" parent="Z76vCyFURMCPnctb68hr-25">
          <mxGeometry x="139" y="37" width="45" height="30" as="geometry" />
        </mxCell>
        <mxCell id="Z76vCyFURMCPnctb68hr-5" value="" style="rounded=0;whiteSpace=wrap;html=1;" vertex="1" parent="Z76vCyFURMCPnctb68hr-25">
          <mxGeometry x="239" y="37" width="45" height="30" as="geometry" />
        </mxCell>
        <mxCell id="Z76vCyFURMCPnctb68hr-6" value="&lt;p style=&quot;line-height: 100%;&quot;&gt;&lt;font size=&quot;1&quot; style=&quot;&quot; face=&quot;Times New Roman&quot;&gt;&lt;sup style=&quot;&quot;&gt;&lt;b style=&quot;font-size: 24px;&quot;&gt;...&lt;/b&gt;&lt;/sup&gt;&lt;/font&gt;&lt;/p&gt;" style="rounded=0;whiteSpace=wrap;html=1;" vertex="1" parent="Z76vCyFURMCPnctb68hr-25">
          <mxGeometry x="84" y="37" width="55" height="30" as="geometry" />
        </mxCell>
        <mxCell id="Z76vCyFURMCPnctb68hr-8" value="" style="rounded=0;whiteSpace=wrap;html=1;" vertex="1" parent="Z76vCyFURMCPnctb68hr-25">
          <mxGeometry x="339" y="37" width="45" height="30" as="geometry" />
        </mxCell>
        <mxCell id="Z76vCyFURMCPnctb68hr-10" value="&lt;font style=&quot;font-size: 14px;&quot; face=&quot;Times New Roman&quot;&gt;K&lt;/font&gt;" style="rounded=0;whiteSpace=wrap;html=1;" vertex="1" parent="Z76vCyFURMCPnctb68hr-25">
          <mxGeometry x="399" y="37" width="45" height="30" as="geometry" />
        </mxCell>
        <mxCell id="Z76vCyFURMCPnctb68hr-11" value="&lt;font style=&quot;font-size: 14px;&quot; face=&quot;Times New Roman&quot;&gt;L&lt;/font&gt;" style="rounded=0;whiteSpace=wrap;html=1;" vertex="1" parent="Z76vCyFURMCPnctb68hr-25">
          <mxGeometry x="459" y="37" width="45" height="30" as="geometry" />
        </mxCell>
        <mxCell id="Z76vCyFURMCPnctb68hr-14" value="&lt;p style=&quot;line-height: 100%;&quot;&gt;&lt;font style=&quot;font-size: 14px;&quot; face=&quot;Times New Roman&quot;&gt;0&lt;/font&gt;&lt;/p&gt;" style="text;html=1;align=center;verticalAlign=middle;resizable=0;points=[];autosize=1;strokeColor=none;fillColor=none;" vertex="1" parent="Z76vCyFURMCPnctb68hr-25">
          <mxGeometry x="49" width="25" height="48" as="geometry" />
        </mxCell>
        <mxCell id="Z76vCyFURMCPnctb68hr-15" value="&lt;font style=&quot;font-size: 14px;&quot; face=&quot;Times New Roman&quot;&gt;data&lt;/font&gt;" style="text;html=1;align=center;verticalAlign=middle;resizable=0;points=[];autosize=1;strokeColor=none;fillColor=none;" vertex="1" parent="Z76vCyFURMCPnctb68hr-25">
          <mxGeometry y="37.5" width="41" height="29" as="geometry" />
        </mxCell>
        <mxCell id="Z76vCyFURMCPnctb68hr-16" value="&lt;p style=&quot;line-height: 100%;&quot;&gt;&lt;font style=&quot;font-size: 14px;&quot; face=&quot;Times New Roman&quot;&gt;K&lt;/font&gt;&lt;/p&gt;" style="text;html=1;align=center;verticalAlign=middle;resizable=0;points=[];autosize=1;strokeColor=none;fillColor=none;" vertex="1" parent="Z76vCyFURMCPnctb68hr-25">
          <mxGeometry x="147.5" width="28" height="48" as="geometry" />
        </mxCell>
        <mxCell id="Z76vCyFURMCPnctb68hr-17" value="&lt;p style=&quot;line-height: 100%;&quot;&gt;&lt;font style=&quot;font-size: 14px;&quot; face=&quot;Times New Roman&quot;&gt;L&lt;/font&gt;&lt;/p&gt;" style="text;html=1;align=center;verticalAlign=middle;resizable=0;points=[];autosize=1;strokeColor=none;fillColor=none;" vertex="1" parent="Z76vCyFURMCPnctb68hr-25">
          <mxGeometry x="248" width="27" height="48" as="geometry" />
        </mxCell>
        <mxCell id="Z76vCyFURMCPnctb68hr-18" value="&lt;p style=&quot;line-height: 100%;&quot;&gt;&lt;font style=&quot;font-size: 14px;&quot; face=&quot;Times New Roman&quot;&gt;N - 1&lt;/font&gt;&lt;/p&gt;" style="text;html=1;align=center;verticalAlign=middle;resizable=0;points=[];autosize=1;strokeColor=none;fillColor=none;" vertex="1" parent="Z76vCyFURMCPnctb68hr-25">
          <mxGeometry x="338" width="47" height="48" as="geometry" />
        </mxCell>
        <mxCell id="Z76vCyFURMCPnctb68hr-19" value="&lt;p style=&quot;line-height: 100%;&quot;&gt;&lt;font style=&quot;font-size: 14px;&quot; face=&quot;Times New Roman&quot;&gt;beg&lt;/font&gt;&lt;/p&gt;" style="text;html=1;align=center;verticalAlign=middle;resizable=0;points=[];autosize=1;strokeColor=none;fillColor=none;" vertex="1" parent="Z76vCyFURMCPnctb68hr-25">
          <mxGeometry x="402.5" width="38" height="48" as="geometry" />
        </mxCell>
        <mxCell id="Z76vCyFURMCPnctb68hr-20" value="&lt;p style=&quot;line-height: 100%;&quot;&gt;&lt;font style=&quot;font-size: 14px;&quot; face=&quot;Times New Roman&quot;&gt;end&lt;/font&gt;&lt;/p&gt;" style="text;html=1;align=center;verticalAlign=middle;resizable=0;points=[];autosize=1;strokeColor=none;fillColor=none;" vertex="1" parent="Z76vCyFURMCPnctb68hr-25">
          <mxGeometry x="462.5" width="38" height="48" as="geometry" />
        </mxCell>
        <mxCell id="Z76vCyFURMCPnctb68hr-23" value="&lt;p style=&quot;line-height: 100%;&quot;&gt;&lt;font size=&quot;1&quot; style=&quot;&quot; face=&quot;Times New Roman&quot;&gt;&lt;sup style=&quot;&quot;&gt;&lt;b style=&quot;font-size: 24px;&quot;&gt;...&lt;/b&gt;&lt;/sup&gt;&lt;/font&gt;&lt;/p&gt;" style="rounded=0;whiteSpace=wrap;html=1;" vertex="1" parent="Z76vCyFURMCPnctb68hr-25">
          <mxGeometry x="184" y="37" width="55" height="30" as="geometry" />
        </mxCell>
        <mxCell id="Z76vCyFURMCPnctb68hr-24" value="&lt;p style=&quot;line-height: 100%;&quot;&gt;&lt;font size=&quot;1&quot; style=&quot;&quot; face=&quot;Times New Roman&quot;&gt;&lt;sup style=&quot;&quot;&gt;&lt;b style=&quot;font-size: 24px;&quot;&gt;...&lt;/b&gt;&lt;/sup&gt;&lt;/font&gt;&lt;/p&gt;" style="rounded=0;whiteSpace=wrap;html=1;" vertex="1" parent="Z76vCyFURMCPnctb68hr-25">
          <mxGeometry x="284" y="37" width="55" height="30" as="geometry" />
        </mxCell>
        <mxCell id="Z76vCyFURMCPnctb68hr-27" value="" style="rounded=0;whiteSpace=wrap;html=1;" vertex="1" parent="1">
          <mxGeometry x="256.5" y="611" width="45" height="30" as="geometry" />
        </mxCell>
        <mxCell id="Z76vCyFURMCPnctb68hr-28" value="" style="rounded=0;whiteSpace=wrap;html=1;" vertex="1" parent="1">
          <mxGeometry x="356.5" y="611" width="45" height="30" as="geometry" />
        </mxCell>
        <mxCell id="Z76vCyFURMCPnctb68hr-30" value="&lt;p style=&quot;line-height: 100%;&quot;&gt;&lt;font size=&quot;1&quot; style=&quot;&quot; face=&quot;Times New Roman&quot;&gt;&lt;sup style=&quot;&quot;&gt;&lt;b style=&quot;font-size: 24px;&quot;&gt;...&lt;/b&gt;&lt;/sup&gt;&lt;/font&gt;&lt;/p&gt;" style="rounded=0;whiteSpace=wrap;html=1;" vertex="1" parent="1">
          <mxGeometry x="301.5" y="611" width="55" height="30" as="geometry" />
        </mxCell>
        <mxCell id="Z76vCyFURMCPnctb68hr-31" value="" style="rounded=0;whiteSpace=wrap;html=1;" vertex="1" parent="1">
          <mxGeometry x="456.5" y="611" width="45" height="30" as="geometry" />
        </mxCell>
        <mxCell id="Z76vCyFURMCPnctb68hr-32" value="&lt;font style=&quot;font-size: 14px;&quot; face=&quot;Times New Roman&quot;&gt;K&lt;/font&gt;" style="rounded=0;whiteSpace=wrap;html=1;" vertex="1" parent="1">
          <mxGeometry x="167.5" y="611" width="45" height="30" as="geometry" />
        </mxCell>
        <mxCell id="Z76vCyFURMCPnctb68hr-34" value="&lt;p style=&quot;line-height: 100%;&quot;&gt;&lt;font style=&quot;font-size: 14px;&quot; face=&quot;Times New Roman&quot;&gt;0&lt;/font&gt;&lt;/p&gt;" style="text;html=1;align=center;verticalAlign=middle;resizable=0;points=[];autosize=1;strokeColor=none;fillColor=none;" vertex="1" parent="1">
          <mxGeometry x="266.5" y="574" width="25" height="48" as="geometry" />
        </mxCell>
        <mxCell id="Z76vCyFURMCPnctb68hr-35" value="&lt;font style=&quot;font-size: 14px;&quot; face=&quot;Times New Roman&quot;&gt;data&lt;/font&gt;" style="text;html=1;align=center;verticalAlign=middle;resizable=0;points=[];autosize=1;strokeColor=none;fillColor=none;" vertex="1" parent="1">
          <mxGeometry x="217.5" y="611.5" width="41" height="29" as="geometry" />
        </mxCell>
        <mxCell id="Z76vCyFURMCPnctb68hr-36" value="&lt;p style=&quot;line-height: 100%;&quot;&gt;&lt;font style=&quot;font-size: 14px;&quot; face=&quot;Times New Roman&quot;&gt;K&lt;/font&gt;&lt;/p&gt;" style="text;html=1;align=center;verticalAlign=middle;resizable=0;points=[];autosize=1;strokeColor=none;fillColor=none;" vertex="1" parent="1">
          <mxGeometry x="365" y="574" width="28" height="48" as="geometry" />
        </mxCell>
        <mxCell id="Z76vCyFURMCPnctb68hr-38" value="&lt;p style=&quot;line-height: 100%;&quot;&gt;&lt;font style=&quot;font-size: 14px;&quot; face=&quot;Times New Roman&quot;&gt;N - 1&lt;/font&gt;&lt;/p&gt;" style="text;html=1;align=center;verticalAlign=middle;resizable=0;points=[];autosize=1;strokeColor=none;fillColor=none;" vertex="1" parent="1">
          <mxGeometry x="455.5" y="574" width="47" height="48" as="geometry" />
        </mxCell>
        <mxCell id="Z76vCyFURMCPnctb68hr-39" value="&lt;p style=&quot;line-height: 100%;&quot;&gt;&lt;font style=&quot;font-size: 14px;&quot; face=&quot;Times New Roman&quot;&gt;top&lt;/font&gt;&lt;/p&gt;" style="text;html=1;align=center;verticalAlign=middle;resizable=0;points=[];autosize=1;strokeColor=none;fillColor=none;" vertex="1" parent="1">
          <mxGeometry x="170" y="572" width="40" height="50" as="geometry" />
        </mxCell>
        <mxCell id="Z76vCyFURMCPnctb68hr-42" value="&lt;p style=&quot;line-height: 100%;&quot;&gt;&lt;font size=&quot;1&quot; style=&quot;&quot; face=&quot;Times New Roman&quot;&gt;&lt;sup style=&quot;&quot;&gt;&lt;b style=&quot;font-size: 24px;&quot;&gt;...&lt;/b&gt;&lt;/sup&gt;&lt;/font&gt;&lt;/p&gt;" style="rounded=0;whiteSpace=wrap;html=1;" vertex="1" parent="1">
          <mxGeometry x="401.5" y="611" width="55" height="30" as="geometry" />
        </mxCell>
        <mxCell id="Z76vCyFURMCPnctb68hr-46" value="Queue" style="swimlane;fontStyle=1;align=center;verticalAlign=top;childLayout=stackLayout;horizontal=1;startSize=26;horizontalStack=0;resizeParent=1;resizeParentMax=0;resizeLast=0;collapsible=1;marginBottom=0;whiteSpace=wrap;html=1;" vertex="1" parent="1">
          <mxGeometry x="188" y="91" width="205" height="346" as="geometry">
            <mxRectangle x="101" y="384" width="52" height="26" as="alternateBounds" />
          </mxGeometry>
        </mxCell>
        <mxCell id="Z76vCyFURMCPnctb68hr-47" value="- beg: int" style="text;strokeColor=none;fillColor=none;align=left;verticalAlign=top;spacingLeft=4;spacingRight=4;overflow=hidden;rotatable=0;points=[[0,0.5],[1,0.5]];portConstraint=eastwest;whiteSpace=wrap;html=1;" vertex="1" parent="Z76vCyFURMCPnctb68hr-46">
          <mxGeometry y="26" width="205" height="26" as="geometry" />
        </mxCell>
        <mxCell id="Z76vCyFURMCPnctb68hr-59" value="- end: int" style="text;strokeColor=none;fillColor=none;align=left;verticalAlign=top;spacingLeft=4;spacingRight=4;overflow=hidden;rotatable=0;points=[[0,0.5],[1,0.5]];portConstraint=eastwest;whiteSpace=wrap;html=1;" vertex="1" parent="Z76vCyFURMCPnctb68hr-46">
          <mxGeometry y="52" width="205" height="26" as="geometry" />
        </mxCell>
        <mxCell id="Z76vCyFURMCPnctb68hr-48" value="- length: int" style="text;strokeColor=none;fillColor=none;align=left;verticalAlign=top;spacingLeft=4;spacingRight=4;overflow=hidden;rotatable=0;points=[[0,0.5],[1,0.5]];portConstraint=eastwest;whiteSpace=wrap;html=1;" vertex="1" parent="Z76vCyFURMCPnctb68hr-46">
          <mxGeometry y="78" width="205" height="26" as="geometry" />
        </mxCell>
        <mxCell id="Z76vCyFURMCPnctb68hr-49" value="- data: char*" style="text;strokeColor=none;fillColor=none;align=left;verticalAlign=top;spacingLeft=4;spacingRight=4;overflow=hidden;rotatable=0;points=[[0,0.5],[1,0.5]];portConstraint=eastwest;whiteSpace=wrap;html=1;" vertex="1" parent="Z76vCyFURMCPnctb68hr-46">
          <mxGeometry y="104" width="205" height="26" as="geometry" />
        </mxCell>
        <mxCell id="Z76vCyFURMCPnctb68hr-50" value="" style="line;strokeWidth=1;fillColor=none;align=left;verticalAlign=middle;spacingTop=-1;spacingLeft=3;spacingRight=3;rotatable=0;labelPosition=right;points=[];portConstraint=eastwest;strokeColor=inherit;" vertex="1" parent="Z76vCyFURMCPnctb68hr-46">
          <mxGeometry y="130" width="205" height="8" as="geometry" />
        </mxCell>
        <mxCell id="Z76vCyFURMCPnctb68hr-51" value="+ Queue(int length)" style="text;strokeColor=none;fillColor=none;align=left;verticalAlign=top;spacingLeft=4;spacingRight=4;overflow=hidden;rotatable=0;points=[[0,0.5],[1,0.5]];portConstraint=eastwest;whiteSpace=wrap;html=1;" vertex="1" parent="Z76vCyFURMCPnctb68hr-46">
          <mxGeometry y="138" width="205" height="26" as="geometry" />
        </mxCell>
        <mxCell id="Z76vCyFURMCPnctb68hr-52" value="+ ~Queue()" style="text;strokeColor=none;fillColor=none;align=left;verticalAlign=top;spacingLeft=4;spacingRight=4;overflow=hidden;rotatable=0;points=[[0,0.5],[1,0.5]];portConstraint=eastwest;whiteSpace=wrap;html=1;" vertex="1" parent="Z76vCyFURMCPnctb68hr-46">
          <mxGeometry y="164" width="205" height="26" as="geometry" />
        </mxCell>
        <mxCell id="Z76vCyFURMCPnctb68hr-53" value="+ empty(): bool" style="text;strokeColor=none;fillColor=none;align=left;verticalAlign=top;spacingLeft=4;spacingRight=4;overflow=hidden;rotatable=0;points=[[0,0.5],[1,0.5]];portConstraint=eastwest;whiteSpace=wrap;html=1;" vertex="1" parent="Z76vCyFURMCPnctb68hr-46">
          <mxGeometry y="190" width="205" height="26" as="geometry" />
        </mxCell>
        <mxCell id="Z76vCyFURMCPnctb68hr-54" value="+ print(std::ostream &amp;amp;ostream): void" style="text;strokeColor=none;fillColor=none;align=left;verticalAlign=top;spacingLeft=4;spacingRight=4;overflow=hidden;rotatable=0;points=[[0,0.5],[1,0.5]];portConstraint=eastwest;whiteSpace=wrap;html=1;" vertex="1" parent="Z76vCyFURMCPnctb68hr-46">
          <mxGeometry y="216" width="205" height="26" as="geometry" />
        </mxCell>
        <mxCell id="Z76vCyFURMCPnctb68hr-55" value="+ pop(char &amp;amp;out): bool" style="text;strokeColor=none;fillColor=none;align=left;verticalAlign=top;spacingLeft=4;spacingRight=4;overflow=hidden;rotatable=0;points=[[0,0.5],[1,0.5]];portConstraint=eastwest;whiteSpace=wrap;html=1;" vertex="1" parent="Z76vCyFURMCPnctb68hr-46">
          <mxGeometry y="242" width="205" height="26" as="geometry" />
        </mxCell>
        <mxCell id="Z76vCyFURMCPnctb68hr-56" value="+ pop(): char" style="text;strokeColor=none;fillColor=none;align=left;verticalAlign=top;spacingLeft=4;spacingRight=4;overflow=hidden;rotatable=0;points=[[0,0.5],[1,0.5]];portConstraint=eastwest;whiteSpace=wrap;html=1;" vertex="1" parent="Z76vCyFURMCPnctb68hr-46">
          <mxGeometry y="268" width="205" height="26" as="geometry" />
        </mxCell>
        <mxCell id="Z76vCyFURMCPnctb68hr-57" value="+ push(char value): bool" style="text;strokeColor=none;fillColor=none;align=left;verticalAlign=top;spacingLeft=4;spacingRight=4;overflow=hidden;rotatable=0;points=[[0,0.5],[1,0.5]];portConstraint=eastwest;whiteSpace=wrap;html=1;" vertex="1" parent="Z76vCyFURMCPnctb68hr-46">
          <mxGeometry y="294" width="205" height="26" as="geometry" />
        </mxCell>
        <mxCell id="Z76vCyFURMCPnctb68hr-58" value="+ clear(): void" style="text;strokeColor=none;fillColor=none;align=left;verticalAlign=top;spacingLeft=4;spacingRight=4;overflow=hidden;rotatable=0;points=[[0,0.5],[1,0.5]];portConstraint=eastwest;whiteSpace=wrap;html=1;" vertex="1" parent="Z76vCyFURMCPnctb68hr-46">
          <mxGeometry y="320" width="205" height="26" as="geometry" />
        </mxCell>
      </root>
    </mxGraphModel>
  </diagram>
</mxfile>
